<svg width="46" height="80" viewBox="0 0 46 80" fill="none" xmlns="http://www.w3.org/2000/svg">
<path d="M14.5625 6.25V9.0625H31.4375V6.25H14.5625ZM14.5625 6.25V9.0625H31.4375V6.25H14.5625ZM14.5625 6.25V9.0625H31.4375V6.25H14.5625ZM14.5625 6.25V9.0625H31.4375V6.25H14.5625ZM6.125 62.5V65.3125H39.875V62.5H6.125ZM14.5625 6.25V9.0625H31.4375V6.25H14.5625ZM6.125 62.5V65.3125H39.875V62.5H6.125ZM14.5625 6.25V9.0625H31.4375V6.25H14.5625ZM6.125 62.5V65.3125H39.875V62.5H6.125ZM42.6875 0.625H3.3125C1.76562 0.625 0.5 1.89062 0.5 3.4375V17.5H3.3125V14.6875H42.6875V73.75C42.6875 75.2969 41.4219 76.5625 39.875 76.5625H6.125C4.57812 76.5625 3.3125 75.2969 3.3125 73.75V31.5625H0.5V76.5625C0.5 78.1094 1.76562 79.375 3.3125 79.375H42.6875C44.2344 79.375 45.5 78.1094 45.5 76.5625V3.4375C45.5 1.89062 44.2344 0.625 42.6875 0.625ZM42.6875 11.875H3.3125V6.25C3.3125 4.70312 4.57812 3.4375 6.125 3.4375H39.875C41.4219 3.4375 42.6875 4.70312 42.6875 6.25V11.875ZM39.875 62.5H6.125V65.3125H39.875V62.5ZM14.5625 9.0625H31.4375V6.25H14.5625V9.0625ZM6.125 62.5V65.3125H39.875V62.5H6.125ZM14.5625 6.25V9.0625H31.4375V6.25H14.5625ZM14.5625 6.25V9.0625H31.4375V6.25H14.5625ZM14.5625 6.25V9.0625H31.4375V6.25H14.5625ZM14.5625 6.25V9.0625H31.4375V6.25H14.5625Z" fill="#2D2220"/>
<path d="M31.4375 6.25H14.5625V9.0625H31.4375V6.25Z" fill="#2D2220"/>
</svg>
